<?xml version="1.0" encoding="UTF-8" standalone="no"?>
<!DOCTYPE svg PUBLIC "-//W3C//DTD SVG 1.1//EN"
 "http://www.w3.org/Graphics/SVG/1.1/DTD/svg11.dtd">
<!-- Generated by graphviz version 2.40.1 (20161225.0304)
 -->
<!-- Title: %3 Pages: 1 -->
<svg width="1390pt" height="424pt"
 viewBox="0.00 0.00 1725.00 526.50" xmlns="http://www.w3.org/2000/svg" xmlns:xlink="http://www.w3.org/1999/xlink">
<g id="graph0" class="graph" transform="scale(.8056 .8056) rotate(0) translate(4 522.5)">
<title>%3</title>
<polygon fill="#ffffff" stroke="transparent" points="-4,4 -4,-522.5 1721,-522.5 1721,4 -4,4"/>
<g id="clust1" class="cluster">
<title>cluster_lightmap</title>
<polygon fill="none" stroke="#000000" points="859,-168.5 859,-435.5 1709,-435.5 1709,-168.5 859,-168.5"/>
<text text-anchor="middle" x="1284" y="-420.3" font-family="Times,serif" font-size="14.00" fill="#000000">lightmap.cpp</text>
</g>
<g id="clust2" class="cluster">
<title>cluster_normal</title>
<polygon fill="none" stroke="#000000" points="1467,-185.5 1467,-360.5 1701,-360.5 1701,-185.5 1467,-185.5"/>
<text text-anchor="middle" x="1584" y="-345.3" font-family="Times,serif" font-size="14.00" fill="#000000">normal.cpp</text>
</g>
<g id="clust4" class="cluster">
<title>cluster_octarender</title>
<polygon fill="none" stroke="#000000" points="8,-8 8,-510.5 851,-510.5 851,-8 8,-8"/>
<text text-anchor="middle" x="429.5" y="-495.3" font-family="Times,serif" font-size="14.00" fill="#000000">octarender.cpp</text>
</g>
<g id="clust8" class="cluster">
<title>cluster_findtjoints</title>
<polygon fill="none" stroke="#000000" points="539,-185.5 539,-435.5 843,-435.5 843,-185.5 539,-185.5"/>
<text text-anchor="middle" x="691" y="-420.3" font-family="Times,serif" font-size="14.00" fill="#000000">findtjoints</text>
</g>
<g id="clust9" class="cluster">
<title>cluster_physics</title>
<polygon fill="none" stroke="#000000" points="1337,-85.5 1337,-160.5 1447,-160.5 1447,-85.5 1337,-85.5"/>
<text text-anchor="middle" x="1392" y="-145.3" font-family="Times,serif" font-size="14.00" fill="#000000">physics.cpp</text>
</g>
<g id="clust10" class="cluster">
<title>cluster_renderva</title>
<polygon fill="none" stroke="#000000" points="1085,-8 1085,-160.5 1329,-160.5 1329,-8 1085,-8"/>
<text text-anchor="middle" x="1207" y="-145.3" font-family="Times,serif" font-size="14.00" fill="#000000">renderva.cpp</text>
</g>
<!-- valist -->
<g id="node1" class="node">
<title>valist</title>
<path fill="none" stroke="#000000" d="M984,-52C984,-52 952,-52 952,-52 946,-52 940,-46 940,-40 940,-40 940,-28 940,-28 940,-22 946,-16 952,-16 952,-16 984,-16 984,-16 990,-16 996,-22 996,-28 996,-28 996,-40 996,-40 996,-46 990,-52 984,-52"/>
<text text-anchor="middle" x="968" y="-30.3" font-family="Times,serif" font-size="14.00" fill="#000000">valist</text>
</g>
<!-- lightmaps -->
<g id="node2" class="node">
<title>lightmaps</title>
<path fill="none" stroke="#000000" d="M1063,-129.5C1063,-129.5 999,-129.5 999,-129.5 993,-129.5 987,-123.5 987,-117.5 987,-117.5 987,-105.5 987,-105.5 987,-99.5 993,-93.5 999,-93.5 999,-93.5 1063,-93.5 1063,-93.5 1069,-93.5 1075,-99.5 1075,-105.5 1075,-105.5 1075,-117.5 1075,-117.5 1075,-123.5 1069,-129.5 1063,-129.5"/>
<text text-anchor="middle" x="1031" y="-107.8" font-family="Times,serif" font-size="14.00" fill="#000000">lightmaps</text>
</g>
<!-- lightmaptexs -->
<g id="node3" class="node">
<title>lightmaptexs</title>
<path fill="none" stroke="#000000" d="M957,-129.5C957,-129.5 871,-129.5 871,-129.5 865,-129.5 859,-123.5 859,-117.5 859,-117.5 859,-105.5 859,-105.5 859,-99.5 865,-93.5 871,-93.5 871,-93.5 957,-93.5 957,-93.5 963,-93.5 969,-99.5 969,-105.5 969,-105.5 969,-117.5 969,-117.5 969,-123.5 963,-129.5 957,-129.5"/>
<text text-anchor="middle" x="914" y="-107.8" font-family="Times,serif" font-size="14.00" fill="#000000">lightmaptexs</text>
</g>
<!-- normalgroups -->
<g id="node4" class="node">
<title>normalgroups</title>
<path fill="none" stroke="#000000" d="M1630,-229.5C1630,-229.5 1538,-229.5 1538,-229.5 1532,-229.5 1526,-223.5 1526,-217.5 1526,-217.5 1526,-205.5 1526,-205.5 1526,-199.5 1532,-193.5 1538,-193.5 1538,-193.5 1630,-193.5 1630,-193.5 1636,-193.5 1642,-199.5 1642,-205.5 1642,-205.5 1642,-217.5 1642,-217.5 1642,-223.5 1636,-229.5 1630,-229.5"/>
<text text-anchor="middle" x="1584" y="-207.8" font-family="Times,serif" font-size="14.00" fill="#000000">normalgroups</text>
</g>
<!-- calcnormals -->
<g id="node5" class="node">
<title>calcnormals</title>
<polygon fill="none" stroke="#000000" points="1589,-283 1589,-329 1693,-329 1693,-283 1589,-283"/>
<text text-anchor="middle" x="1641" y="-313.8" font-family="Times,serif" font-size="14.00" fill="#000000">calcnormals</text>
<polyline fill="none" stroke="#000000" points="1589,-306 1693,-306 "/>
<text text-anchor="middle" x="1641" y="-290.8" font-family="Times,serif" font-size="14.00" fill="#000000">addnormal</text>
</g>
<!-- calcnormals&#45;&gt;normalgroups -->
<g id="edge12" class="edge">
<title>calcnormals&#45;&gt;normalgroups</title>
<path fill="none" stroke="#000000" d="M1626.9101,-282.6404C1618.797,-269.1898 1608.5697,-252.234 1600.1349,-238.25"/>
<polygon fill="#000000" stroke="#000000" points="1603.0532,-236.3116 1594.8912,-229.5564 1597.0591,-239.9271 1603.0532,-236.3116"/>
</g>
<!-- findnormal -->
<g id="node6" class="node">
<title>findnormal</title>
<polygon fill="none" stroke="#000000" points="1570.5,-324 1475.5,-324 1475.5,-288 1570.5,-288 1570.5,-324"/>
<text text-anchor="middle" x="1523" y="-302.3" font-family="Times,serif" font-size="14.00" fill="#000000">findnormal</text>
</g>
<!-- findnormal&#45;&gt;normalgroups -->
<g id="edge11" class="edge">
<title>findnormal&#45;&gt;normalgroups</title>
<path fill="none" stroke="#000000" d="M1540.446,-278.973C1550.6492,-263.1664 1563.2547,-243.6382 1572.2747,-229.6646"/>
<polygon fill="#000000" stroke="#000000" points="1537.2442,-277.4796 1534.7614,-287.7794 1543.1253,-281.2759 1537.2442,-277.4796"/>
</g>
<!-- calclight -->
<g id="node7" class="node">
<title>calclight</title>
<polygon fill="none" stroke="#000000" points="1680.5,-404.5 1601.5,-404.5 1601.5,-368.5 1680.5,-368.5 1680.5,-404.5"/>
<text text-anchor="middle" x="1641" y="-382.8" font-family="Times,serif" font-size="14.00" fill="#000000">calclight</text>
</g>
<!-- calclight&#45;&gt;calcnormals -->
<g id="edge10" class="edge">
<title>calclight&#45;&gt;calcnormals</title>
<path fill="none" stroke="#000000" d="M1641,-368.2333C1641,-359.6261 1641,-349.0841 1641,-339.1401"/>
<polygon fill="#000000" stroke="#000000" points="1644.5001,-339.1 1641,-329.1001 1637.5001,-339.1001 1644.5001,-339.1"/>
</g>
<!-- setupsurfaces -->
<g id="node8" class="node">
<title>setupsurfaces</title>
<polygon fill="none" stroke="#000000" points="1473.5,-404.5 1356.5,-404.5 1356.5,-368.5 1473.5,-368.5 1473.5,-404.5"/>
<text text-anchor="middle" x="1415" y="-382.8" font-family="Times,serif" font-size="14.00" fill="#000000">setupsurfaces</text>
</g>
<!-- setupsurfaces&#45;&gt;findnormal -->
<g id="edge2" class="edge">
<title>setupsurfaces&#45;&gt;findnormal</title>
<path fill="none" stroke="#000000" d="M1459.2359,-368.45C1463.6874,-366.0127 1468.0257,-363.3568 1472,-360.5 1483.2085,-352.443 1493.9195,-341.6547 1502.6064,-331.8032"/>
<polygon fill="#000000" stroke="#000000" points="1505.2865,-334.0543 1509.1099,-324.1734 1499.9592,-329.5134 1505.2865,-334.0543"/>
</g>
<!-- setupsurface -->
<g id="node9" class="node">
<title>setupsurface</title>
<polygon fill="none" stroke="#000000" points="1337,-404.5 1227,-404.5 1227,-368.5 1337,-368.5 1337,-404.5"/>
<text text-anchor="middle" x="1282" y="-382.8" font-family="Times,serif" font-size="14.00" fill="#000000">setupsurface</text>
</g>
<!-- setupsurfaces&#45;&gt;setupsurface -->
<g id="edge4" class="edge">
<title>setupsurfaces&#45;&gt;setupsurface</title>
<path fill="none" stroke="#000000" d="M1356.2483,-386.5C1353.2518,-386.5 1350.2552,-386.5 1347.2586,-386.5"/>
<polygon fill="#000000" stroke="#000000" points="1347.0703,-383.0001 1337.0703,-386.5 1347.0703,-390.0001 1347.0703,-383.0001"/>
</g>
<!-- findlights -->
<g id="node10" class="node">
<title>findlights</title>
<polygon fill="none" stroke="#000000" points="1457.5,-324 1372.5,-324 1372.5,-288 1457.5,-288 1457.5,-324"/>
<text text-anchor="middle" x="1415" y="-302.3" font-family="Times,serif" font-size="14.00" fill="#000000">findlights</text>
</g>
<!-- setupsurfaces&#45;&gt;findlights -->
<g id="edge3" class="edge">
<title>setupsurfaces&#45;&gt;findlights</title>
<path fill="none" stroke="#000000" d="M1415,-368.2333C1415,-358.2496 1415,-345.663 1415,-334.4258"/>
<polygon fill="#000000" stroke="#000000" points="1418.5001,-334.1944 1415,-324.1944 1411.5001,-334.1944 1418.5001,-334.1944"/>
</g>
<!-- alloclightmap -->
<g id="node11" class="node">
<title>alloclightmap</title>
<polygon fill="none" stroke="#000000" points="1192,-324 1078,-324 1078,-288 1192,-288 1192,-324"/>
<text text-anchor="middle" x="1135" y="-302.3" font-family="Times,serif" font-size="14.00" fill="#000000">alloclightmap</text>
</g>
<!-- setupsurface&#45;&gt;alloclightmap -->
<g id="edge6" class="edge">
<title>setupsurface&#45;&gt;alloclightmap</title>
<path fill="none" stroke="#000000" d="M1226.7932,-371.9056C1217.9277,-368.6839 1209.0341,-364.8935 1201,-360.5 1186.4873,-352.5636 1172.117,-341.225 1160.5092,-330.9433"/>
<polygon fill="#000000" stroke="#000000" points="1162.6945,-328.1994 1152.9465,-324.0488 1157.9786,-333.3724 1162.6945,-328.1994"/>
</g>
<!-- generatelightmap -->
<g id="node16" class="node">
<title>generatelightmap</title>
<polygon fill="none" stroke="#000000" points="1354,-324 1210,-324 1210,-288 1354,-288 1354,-324"/>
<text text-anchor="middle" x="1282" y="-302.3" font-family="Times,serif" font-size="14.00" fill="#000000">generatelightmap</text>
</g>
<!-- setupsurface&#45;&gt;generatelightmap -->
<g id="edge5" class="edge">
<title>setupsurface&#45;&gt;generatelightmap</title>
<path fill="none" stroke="#000000" d="M1282,-368.2333C1282,-358.2496 1282,-345.663 1282,-334.4258"/>
<polygon fill="#000000" stroke="#000000" points="1285.5001,-334.1944 1282,-324.1944 1278.5001,-334.1944 1285.5001,-334.1944"/>
</g>
<!-- packlightmaps -->
<g id="node12" class="node">
<title>packlightmaps</title>
<polygon fill="none" stroke="#000000" points="1061,-177 1061,-246 1183,-246 1183,-177 1061,-177"/>
<text text-anchor="middle" x="1122" y="-230.8" font-family="Times,serif" font-size="14.00" fill="#000000">packlightmaps</text>
<polyline fill="none" stroke="#000000" points="1061,-223 1183,-223 "/>
<text text-anchor="middle" x="1122" y="-207.8" font-family="Times,serif" font-size="14.00" fill="#000000">packlightmap</text>
<polyline fill="none" stroke="#000000" points="1061,-200 1183,-200 "/>
<text text-anchor="middle" x="1122" y="-184.8" font-family="Times,serif" font-size="14.00" fill="#000000">insertlightmap</text>
</g>
<!-- alloclightmap&#45;&gt;packlightmaps -->
<g id="edge7" class="edge">
<title>alloclightmap&#45;&gt;packlightmaps</title>
<path fill="none" stroke="#000000" d="M1132.4935,-287.7794C1131.2507,-278.7455 1129.6899,-267.4 1128.1549,-256.2415"/>
<polygon fill="#000000" stroke="#000000" points="1131.5926,-255.5479 1126.7623,-246.1182 1124.6579,-256.5019 1131.5926,-255.5479"/>
</g>
<!-- packlightmaps&#45;&gt;lightmaps -->
<g id="edge13" class="edge">
<title>packlightmaps&#45;&gt;lightmaps</title>
<path fill="none" stroke="#000000" d="M1090.428,-176.8055C1078.553,-163.7561 1065.2773,-149.1673 1054.2906,-137.094"/>
<polygon fill="#000000" stroke="#000000" points="1056.7581,-134.6053 1047.4391,-129.5649 1051.5809,-139.3166 1056.7581,-134.6053"/>
</g>
<!-- genlightmaptexs -->
<g id="node13" class="node">
<title>genlightmaptexs</title>
<polygon fill="none" stroke="#000000" points="1017.5,-229.5 880.5,-229.5 880.5,-193.5 1017.5,-193.5 1017.5,-229.5"/>
<text text-anchor="middle" x="949" y="-207.8" font-family="Times,serif" font-size="14.00" fill="#000000">genlightmaptexs</text>
</g>
<!-- genlightmaptexs&#45;&gt;lightmaps -->
<g id="edge14" class="edge">
<title>genlightmaptexs&#45;&gt;lightmaps</title>
<path fill="none" stroke="#000000" d="M970.6937,-185.0442C984.9995,-167.5982 1003.3688,-145.1965 1016.0553,-129.7253"/>
<polygon fill="#000000" stroke="#000000" points="967.6744,-183.2065 964.0401,-193.1585 973.0873,-187.645 967.6744,-183.2065"/>
</g>
<!-- genlightmaptexs&#45;&gt;lightmaptexs -->
<g id="edge15" class="edge">
<title>genlightmaptexs&#45;&gt;lightmaptexs</title>
<path fill="none" stroke="#000000" d="M942.5805,-193.1585C937.3014,-178.0755 929.7371,-156.4631 923.7164,-139.2611"/>
<polygon fill="#000000" stroke="#000000" points="926.9859,-138.0076 920.3788,-129.7253 920.3789,-140.3201 926.9859,-138.0076"/>
</g>
<!-- clearlights -->
<g id="node14" class="node">
<title>clearlights</title>
<polygon fill="none" stroke="#000000" points="1059.5,-324 966.5,-324 966.5,-288 1059.5,-288 1059.5,-324"/>
<text text-anchor="middle" x="1013" y="-302.3" font-family="Times,serif" font-size="14.00" fill="#000000">clearlights</text>
</g>
<!-- clearlights&#45;&gt;genlightmaptexs -->
<g id="edge8" class="edge">
<title>clearlights&#45;&gt;genlightmaptexs</title>
<path fill="none" stroke="#000000" d="M1000.6602,-287.7794C991.098,-273.6603 977.7119,-253.8949 966.9619,-238.0219"/>
<polygon fill="#000000" stroke="#000000" points="969.8075,-235.9818 961.302,-229.6646 964.0116,-239.9071 969.8075,-235.9818"/>
</g>
<!-- initlights -->
<g id="node15" class="node">
<title>initlights</title>
<polygon fill="none" stroke="#000000" points="948.5,-324 867.5,-324 867.5,-288 948.5,-288 948.5,-324"/>
<text text-anchor="middle" x="908" y="-302.3" font-family="Times,serif" font-size="14.00" fill="#000000">initlights</text>
</g>
<!-- initlights&#45;&gt;genlightmaptexs -->
<g id="edge9" class="edge">
<title>initlights&#45;&gt;genlightmaptexs</title>
<path fill="none" stroke="#000000" d="M915.9052,-287.7794C921.9175,-273.9218 930.2897,-254.625 937.1088,-238.9077"/>
<polygon fill="#000000" stroke="#000000" points="940.3497,-240.2315 941.1191,-229.6646 933.928,-237.4453 940.3497,-240.2315"/>
</g>
<!-- generatelumel -->
<g id="node17" class="node">
<title>generatelumel</title>
<polygon fill="none" stroke="#000000" points="1342,-229.5 1222,-229.5 1222,-193.5 1342,-193.5 1342,-229.5"/>
<text text-anchor="middle" x="1282" y="-207.8" font-family="Times,serif" font-size="14.00" fill="#000000">generatelumel</text>
</g>
<!-- generatelightmap&#45;&gt;generatelumel -->
<g id="edge1" class="edge">
<title>generatelightmap&#45;&gt;generatelumel</title>
<path fill="none" stroke="#000000" d="M1282,-287.7794C1282,-274.1832 1282,-255.3512 1282,-239.8011"/>
<polygon fill="#000000" stroke="#000000" points="1285.5001,-239.6646 1282,-229.6646 1278.5001,-239.6646 1285.5001,-239.6646"/>
</g>
<!-- shadowray -->
<g id="node41" class="node">
<title>shadowray</title>
<polygon fill="none" stroke="#000000" points="1439,-129.5 1345,-129.5 1345,-93.5 1439,-93.5 1439,-129.5"/>
<text text-anchor="middle" x="1392" y="-107.8" font-family="Times,serif" font-size="14.00" fill="#000000">shadowray</text>
</g>
<!-- generatelumel&#45;&gt;shadowray -->
<g id="edge59" class="edge">
<title>generatelumel&#45;&gt;shadowray</title>
<path fill="none" stroke="#000000" d="M1301.9202,-193.3908C1319.3329,-177.561 1344.7969,-154.4119 1364.2125,-136.7613"/>
<polygon fill="#000000" stroke="#000000" points="1366.8112,-139.129 1371.8563,-129.8124 1362.1025,-133.9494 1366.8112,-139.129"/>
</g>
<!-- rendergeom -->
<g id="node43" class="node">
<title>rendergeom</title>
<polygon fill="none" stroke="#000000" points="1321,-129.5 1217,-129.5 1217,-93.5 1321,-93.5 1321,-129.5"/>
<text text-anchor="middle" x="1269" y="-107.8" font-family="Times,serif" font-size="14.00" fill="#000000">rendergeom</text>
</g>
<!-- generatelumel&#45;&gt;rendergeom -->
<!-- findtjoints_v -->
<g id="node18" class="node">
<title>findtjoints_v</title>
<polygon fill="none" stroke="#000000" points="675.5,-479.5 574.5,-479.5 574.5,-443.5 675.5,-443.5 675.5,-479.5"/>
<text text-anchor="middle" x="625" y="-457.8" font-family="Times,serif" font-size="14.00" fill="#000000">findtjoints()</text>
</g>
<!-- gencubeedges_p -->
<g id="node37" class="node">
<title>gencubeedges_p</title>
<polygon fill="none" stroke="#000000" points="700.5,-404.5 549.5,-404.5 549.5,-368.5 700.5,-368.5 700.5,-404.5"/>
<text text-anchor="middle" x="625" y="-382.8" font-family="Times,serif" font-size="14.00" fill="#000000">gencubeedges(*...)</text>
</g>
<!-- findtjoints_v&#45;&gt;gencubeedges_p -->
<g id="edge18" class="edge">
<title>findtjoints_v&#45;&gt;gencubeedges_p</title>
<path fill="none" stroke="#000000" d="M625,-443.3446C625,-434.8401 625,-424.5076 625,-414.9964"/>
<polygon fill="#000000" stroke="#000000" points="628.5001,-414.7481 625,-404.7482 621.5001,-414.7482 628.5001,-414.7481"/>
</g>
<!-- findtjoints -->
<g id="node39" class="node">
<title>findtjoints</title>
<polygon fill="none" stroke="#000000" points="721,-283 721,-329 835,-329 835,-283 721,-283"/>
<text text-anchor="middle" x="778" y="-313.8" font-family="Times,serif" font-size="14.00" fill="#000000">findtjoints(...)</text>
<polyline fill="none" stroke="#000000" points="721,-306 835,-306 "/>
<text text-anchor="middle" x="778" y="-290.8" font-family="Times,serif" font-size="14.00" fill="#000000">addtjoint</text>
</g>
<!-- findtjoints_v&#45;&gt;findtjoints -->
<g id="edge19" class="edge">
<title>findtjoints_v&#45;&gt;findtjoints</title>
<path fill="none" stroke="#000000" d="M675.7,-453.2118C697.5243,-448.7501 719.8884,-442.6835 728,-435.5 755.8795,-410.8102 768.3196,-368.744 773.8012,-339.274"/>
<polygon fill="#000000" stroke="#000000" points="777.315,-339.484 775.5217,-329.0421 770.4119,-338.3233 777.315,-339.484"/>
</g>
<!-- allchanged -->
<g id="node19" class="node">
<title>allchanged</title>
<polygon fill="none" stroke="#000000" points="291.5,-479.5 196.5,-479.5 196.5,-443.5 291.5,-443.5 291.5,-479.5"/>
<text text-anchor="middle" x="244" y="-457.8" font-family="Times,serif" font-size="14.00" fill="#000000">allchanged</text>
</g>
<!-- allchanged&#45;&gt;findtjoints_v -->
<g id="edge36" class="edge">
<title>allchanged&#45;&gt;findtjoints_v</title>
<path fill="none" stroke="#000000" d="M291.625,-461.5C382.4172,-461.5 473.2095,-461.5 564.0017,-461.5"/>
<polygon fill="#000000" stroke="#000000" points="564.2124,-465.0001 574.2124,-461.5 564.2124,-458.0001 564.2124,-465.0001"/>
</g>
<!-- rendercube -->
<g id="node30" class="node">
<title>rendercube</title>
<polygon fill="none" stroke="#000000" points="293.5,-404.5 194.5,-404.5 194.5,-368.5 293.5,-368.5 293.5,-404.5"/>
<text text-anchor="middle" x="244" y="-382.8" font-family="Times,serif" font-size="14.00" fill="#000000">rendercube</text>
</g>
<!-- allchanged&#45;&gt;rendercube -->
<!-- octarender -->
<g id="node20" class="node">
<title>octarender</title>
<polygon fill="none" stroke="#000000" points="171.5,-479.5 76.5,-479.5 76.5,-443.5 171.5,-443.5 171.5,-479.5"/>
<text text-anchor="middle" x="124" y="-457.8" font-family="Times,serif" font-size="14.00" fill="#000000">octarender</text>
</g>
<!-- octarender&#45;&gt;allchanged -->
<g id="edge34" class="edge">
<title>octarender&#45;&gt;allchanged</title>
<path fill="none" stroke="#000000" d="M182.1621,-461.5C186.8897,-461.5 191.6174,-461.5 196.345,-461.5"/>
<polygon fill="#000000" stroke="#000000" points="181.8125,-458.0001 171.8125,-461.5 181.8125,-465.0001 181.8125,-458.0001"/>
</g>
<!-- updateva -->
<g id="node21" class="node">
<title>updateva</title>
<polygon fill="none" stroke="#000000" points="129.5,-404.5 46.5,-404.5 46.5,-368.5 129.5,-368.5 129.5,-404.5"/>
<text text-anchor="middle" x="88" y="-382.8" font-family="Times,serif" font-size="14.00" fill="#000000">updateva</text>
</g>
<!-- octarender&#45;&gt;updateva -->
<g id="edge35" class="edge">
<title>octarender&#45;&gt;updateva</title>
<path fill="none" stroke="#000000" d="M115.2854,-443.3446C111.0277,-434.4743 105.8154,-423.6154 101.0915,-413.7739"/>
<polygon fill="#000000" stroke="#000000" points="104.2418,-412.2488 96.7591,-404.7482 97.9312,-415.278 104.2418,-412.2488"/>
</g>
<!-- updateva&#45;&gt;updateva -->
<g id="edge39" class="edge">
<title>updateva&#45;&gt;updateva</title>
<path fill="none" stroke="#000000" d="M129.7052,-400.1582C139.9076,-399.1465 147.5,-394.5938 147.5,-386.5 147.5,-381.3149 144.3841,-377.5831 139.4621,-375.3045"/>
<polygon fill="#000000" stroke="#000000" points="140.2577,-371.8956 129.7052,-372.8418 138.5445,-378.6828 140.2577,-371.8956"/>
</g>
<!-- setva -->
<g id="node22" class="node">
<title>setva</title>
<polygon fill="none" stroke="#000000" points="71.5,-324 16.5,-324 16.5,-288 71.5,-288 71.5,-324"/>
<text text-anchor="middle" x="44" y="-302.3" font-family="Times,serif" font-size="14.00" fill="#000000">setva</text>
</g>
<!-- updateva&#45;&gt;setva -->
<g id="edge41" class="edge">
<title>updateva&#45;&gt;setva</title>
<path fill="none" stroke="#000000" d="M78.0157,-368.2333C72.3338,-357.8379 65.1094,-344.6205 58.7811,-333.0428"/>
<polygon fill="#000000" stroke="#000000" points="61.8122,-331.2905 53.9448,-324.1944 55.6698,-334.6479 61.8122,-331.2905"/>
</g>
<!-- vacollect -->
<g id="node27" class="node">
<title>vacollect</title>
<polygon fill="none" stroke="#000000" points="49,-188.5 49,-234.5 215,-234.5 215,-188.5 49,-188.5"/>
<text text-anchor="middle" x="132" y="-219.3" font-family="Times,serif" font-size="14.00" fill="#000000">newva</text>
<polyline fill="none" stroke="#000000" points="49,-211.5 215,-211.5 "/>
<text text-anchor="middle" x="93" y="-196.3" font-family="Times,serif" font-size="14.00" fill="#000000">setupdata</text>
<polyline fill="none" stroke="#000000" points="137,-188.5 137,-211.5 "/>
<text text-anchor="middle" x="176" y="-196.3" font-family="Times,serif" font-size="14.00" fill="#000000">optimize</text>
</g>
<!-- setva&#45;&gt;vacollect -->
<g id="edge42" class="edge">
<title>setva&#45;&gt;vacollect</title>
<path fill="none" stroke="#000000" d="M60.9673,-287.7794C72.9611,-274.8998 89.3302,-257.3216 103.3319,-242.2857"/>
<polygon fill="#000000" stroke="#000000" points="106.1488,-244.3964 110.4024,-234.6929 101.026,-239.626 106.1488,-244.3964"/>
</g>
<!-- tjoints -->
<g id="node23" class="node">
<title>tjoints</title>
<path fill="none" stroke="#000000" d="M519,-229.5C519,-229.5 481,-229.5 481,-229.5 475,-229.5 469,-223.5 469,-217.5 469,-217.5 469,-205.5 469,-205.5 469,-199.5 475,-193.5 481,-193.5 481,-193.5 519,-193.5 519,-193.5 525,-193.5 531,-199.5 531,-205.5 531,-205.5 531,-217.5 531,-217.5 531,-223.5 525,-229.5 519,-229.5"/>
<text text-anchor="middle" x="500" y="-207.8" font-family="Times,serif" font-size="14.00" fill="#000000">tjoints</text>
</g>
<!-- addtris -->
<g id="node26" class="node">
<title>addtris</title>
<polygon fill="none" stroke="#000000" points="481,-129.5 413,-129.5 413,-93.5 481,-93.5 481,-129.5"/>
<text text-anchor="middle" x="447" y="-107.8" font-family="Times,serif" font-size="14.00" fill="#000000">addtris</text>
</g>
<!-- tjoints&#45;&gt;addtris -->
<g id="edge56" class="edge">
<title>tjoints&#45;&gt;addtris</title>
<path fill="none" stroke="#000000" d="M490.279,-193.1585C482.2103,-177.9345 470.616,-156.0585 461.4584,-138.78"/>
<polygon fill="#000000" stroke="#000000" points="464.4349,-136.922 456.6594,-129.7253 458.2499,-140.2 464.4349,-136.922"/>
</g>
<!-- gencubeverts -->
<g id="node24" class="node">
<title>gencubeverts</title>
<polygon fill="none" stroke="#000000" points="529,-324 415,-324 415,-288 529,-288 529,-324"/>
<text text-anchor="middle" x="472" y="-302.3" font-family="Times,serif" font-size="14.00" fill="#000000">gencubeverts</text>
</g>
<!-- gencubeverts&#45;&gt;tjoints -->
<g id="edge55" class="edge">
<title>gencubeverts&#45;&gt;tjoints</title>
<path fill="none" stroke="#000000" d="M480.2718,-278.0828C484.9072,-262.4383 490.555,-243.377 494.6179,-229.6646"/>
<polygon fill="#000000" stroke="#000000" points="476.8838,-277.1971 477.3987,-287.7794 483.5954,-279.1858 476.8838,-277.1971"/>
</g>
<!-- addcubeverts -->
<g id="node25" class="node">
<title>addcubeverts</title>
<polygon fill="none" stroke="#000000" points="451,-229.5 337,-229.5 337,-193.5 451,-193.5 451,-229.5"/>
<text text-anchor="middle" x="394" y="-207.8" font-family="Times,serif" font-size="14.00" fill="#000000">addcubeverts</text>
</g>
<!-- gencubeverts&#45;&gt;addcubeverts -->
<g id="edge28" class="edge">
<title>gencubeverts&#45;&gt;addcubeverts</title>
<path fill="none" stroke="#000000" d="M456.9608,-287.7794C445.199,-273.5296 428.6901,-253.5284 415.528,-237.582"/>
<polygon fill="#000000" stroke="#000000" points="418.058,-235.1489 408.993,-229.6646 412.6594,-239.6049 418.058,-235.1489"/>
</g>
<!-- addcubeverts&#45;&gt;lightmaps -->
<g id="edge57" class="edge">
<title>addcubeverts&#45;&gt;lightmaps</title>
<path fill="none" stroke="#000000" d="M423.2744,-187.3768C434.1385,-179.8442 446.9965,-172.4718 460,-168.5 487.5258,-160.0925 951.2807,-171.1975 978,-160.5 993.8216,-154.1655 1007.7908,-140.7323 1017.4104,-129.5306"/>
<polygon fill="#000000" stroke="#000000" points="421.0438,-184.6715 415.0243,-193.3902 425.1671,-190.3283 421.0438,-184.6715"/>
</g>
<!-- addcubeverts&#45;&gt;lightmaptexs -->
<g id="edge58" class="edge">
<title>addcubeverts&#45;&gt;lightmaptexs</title>
<path fill="none" stroke="#000000" d="M423.2851,-187.4119C434.1502,-179.8824 447.006,-172.5031 460,-168.5 501.9522,-155.5757 813.8647,-175.8268 855,-160.5 871.9688,-154.1775 887.5596,-140.7436 898.4475,-129.5385"/>
<polygon fill="#000000" stroke="#000000" points="421.057,-184.7047 415.0337,-193.4209 425.1778,-190.3633 421.057,-184.7047"/>
</g>
<!-- addcubeverts&#45;&gt;addtris -->
<g id="edge33" class="edge">
<title>addcubeverts&#45;&gt;addtris</title>
<path fill="none" stroke="#000000" d="M403.721,-193.1585C411.7897,-177.9345 423.384,-156.0585 432.5416,-138.78"/>
<polygon fill="#000000" stroke="#000000" points="435.7501,-140.2 437.3406,-129.7253 429.5651,-136.922 435.7501,-140.2"/>
</g>
<!-- vc -->
<g id="node29" class="node">
<title>vc</title>
<path fill="none" stroke="#000000" d="M260,-129.5C260,-129.5 230,-129.5 230,-129.5 224,-129.5 218,-123.5 218,-117.5 218,-117.5 218,-105.5 218,-105.5 218,-99.5 224,-93.5 230,-93.5 230,-93.5 260,-93.5 260,-93.5 266,-93.5 272,-99.5 272,-105.5 272,-105.5 272,-117.5 272,-117.5 272,-123.5 266,-129.5 260,-129.5"/>
<text text-anchor="middle" x="245" y="-107.8" font-family="Times,serif" font-size="14.00" fill="#000000">vc</text>
</g>
<!-- addtris&#45;&gt;vc -->
<g id="edge38" class="edge">
<title>addtris&#45;&gt;vc</title>
<path fill="none" stroke="#000000" d="M412.8638,-111.5C369.3713,-111.5 325.8787,-111.5 282.3862,-111.5"/>
<polygon fill="#000000" stroke="#000000" points="282.2227,-108.0001 272.2227,-111.5 282.2226,-115.0001 282.2227,-108.0001"/>
</g>
<!-- vacollect&#45;&gt;valist -->
<g id="edge51" class="edge">
<title>vacollect:newva&#45;&gt;valist</title>
<path fill="none" stroke="#000000" d="M215,-223.5C227.3848,-223.5 214.6836,-176.6601 224,-168.5 235.1216,-158.7588 475.3694,-162.6273 490,-160.5 657.4114,-136.1581 850.3391,-74.3287 930.2885,-47.1534"/>
<polygon fill="#000000" stroke="#000000" points="931.5857,-50.4089 939.916,-43.8624 929.3214,-43.7852 931.5857,-50.4089"/>
</g>
<!-- va -->
<g id="node28" class="node">
<title>va</title>
<path fill="none" stroke="#000000" d="M211,-52C211,-52 181,-52 181,-52 175,-52 169,-46 169,-40 169,-40 169,-28 169,-28 169,-22 175,-16 181,-16 181,-16 211,-16 211,-16 217,-16 223,-22 223,-28 223,-28 223,-40 223,-40 223,-46 217,-52 211,-52"/>
<text text-anchor="middle" x="196" y="-30.3" font-family="Times,serif" font-size="14.00" fill="#000000">va</text>
</g>
<!-- vacollect&#45;&gt;va -->
<g id="edge46" class="edge">
<title>vacollect:setupdata&#45;&gt;va</title>
<path fill="none" stroke="#000000" d="M93,-188.5C93,-144.0556 161.3609,-195.305 189,-160.5 210.9535,-132.8547 208.1314,-90.1522 202.9704,-62.1384"/>
<polygon fill="#000000" stroke="#000000" points="206.3659,-61.2738 200.9246,-52.183 199.5092,-62.6829 206.3659,-61.2738"/>
</g>
<!-- vacollect&#45;&gt;vc -->
<g id="edge44" class="edge">
<title>vacollect:s&#45;&gt;vc:n</title>
<path fill="none" stroke="#000000" d="M177.8456,-178.3386C187.6612,-154.5964 233.6521,-163.3843 243.2441,-139.441"/>
<polygon fill="#000000" stroke="#000000" points="174.3434,-178.0355 176,-188.5 181.2308,-179.2865 174.3434,-178.0355"/>
<polygon fill="#000000" stroke="#000000" points="246.7072,-139.9564 245,-129.5 239.8139,-138.7388 246.7072,-139.9564"/>
</g>
<!-- vacollect&#45;&gt;vc -->
<g id="edge45" class="edge">
<title>vacollect:setupdata&#45;&gt;vc</title>
<path fill="none" stroke="#000000" d="M94.1992,-178.3364C103.4592,-144.9529 164.2749,-185.4375 204,-160.5 216.2128,-152.8334 226.5948,-140.3174 233.856,-129.8542"/>
<polygon fill="#000000" stroke="#000000" points="90.696,-178.1587 93,-188.5 97.6478,-178.979 90.696,-178.1587"/>
</g>
<!-- genvbo -->
<g id="node35" class="node">
<title>genvbo</title>
<polygon fill="none" stroke="#000000" points="16.5,-88.5 16.5,-134.5 93.5,-134.5 93.5,-88.5 16.5,-88.5"/>
<text text-anchor="middle" x="55" y="-119.3" font-family="Times,serif" font-size="14.00" fill="#000000">flushvbo</text>
<polyline fill="none" stroke="#000000" points="16.5,-111.5 93.5,-111.5 "/>
<text text-anchor="middle" x="55" y="-96.3" font-family="Times,serif" font-size="14.00" fill="#000000">genvbo</text>
</g>
<!-- vacollect&#45;&gt;genvbo -->
<g id="edge48" class="edge">
<title>vacollect:setupdata&#45;&gt;genvbo</title>
<path fill="none" stroke="#000000" d="M93,-188.5C93,-172.633 86.4311,-156.6494 78.7556,-143.3891"/>
<polygon fill="#000000" stroke="#000000" points="81.589,-141.3178 73.3322,-134.6788 75.6467,-145.0177 81.589,-141.3178"/>
</g>
<!-- addvbo -->
<g id="node36" class="node">
<title>addvbo</title>
<polygon fill="none" stroke="#000000" points="180,-129.5 112,-129.5 112,-93.5 180,-93.5 180,-129.5"/>
<text text-anchor="middle" x="146" y="-107.8" font-family="Times,serif" font-size="14.00" fill="#000000">addvbo</text>
</g>
<!-- vacollect&#45;&gt;addvbo -->
<g id="edge47" class="edge">
<title>vacollect:setupdata&#45;&gt;addvbo</title>
<path fill="none" stroke="#000000" d="M93,-188.5C93,-177.1006 108.9607,-155.0243 123.3647,-137.4221"/>
<polygon fill="#000000" stroke="#000000" points="126.0867,-139.6229 129.8103,-129.7039 120.7139,-135.136 126.0867,-139.6229"/>
</g>
<!-- rendercube&#45;&gt;setva -->
<g id="edge40" class="edge">
<title>rendercube&#45;&gt;setva</title>
<path fill="none" stroke="#000000" d="M184.2517,-373.4682C174.8255,-371.6468 165.1672,-369.9166 156,-368.5 139.217,-365.9065 94.5135,-369.3178 80,-360.5 66.3354,-352.1979 56.8022,-336.508 50.9948,-324.0869"/>
<polygon fill="#000000" stroke="#000000" points="183.8652,-376.9596 194.3548,-375.4701 185.2258,-370.0931 183.8652,-376.9596"/>
</g>
<!-- rendercube&#45;&gt;gencubeverts -->
<g id="edge22" class="edge">
<title>rendercube&#45;&gt;gencubeverts</title>
<path fill="none" stroke="#000000" d="M293.5133,-381.4384C333.5631,-376.8149 386.4044,-369.3614 406,-360.5 421.4016,-353.5352 436.1469,-341.9996 447.7784,-331.3303"/>
<polygon fill="#000000" stroke="#000000" points="450.4853,-333.5851 455.3032,-324.1491 445.6525,-328.521 450.4853,-333.5851"/>
</g>
<!-- rendercube&#45;&gt;rendercube -->
<g id="edge21" class="edge">
<title>rendercube&#45;&gt;rendercube</title>
<path fill="none" stroke="#000000" d="M293.7454,-399.8872C304.0732,-398.478 311.5,-394.0156 311.5,-386.5 311.5,-381.6853 308.4521,-378.1236 303.546,-375.815"/>
<polygon fill="#000000" stroke="#000000" points="304.316,-372.3968 293.7454,-373.1128 302.4553,-379.145 304.316,-372.3968"/>
</g>
<!-- vamerges -->
<g id="node31" class="node">
<title>vamerges</title>
<path fill="none" stroke="#000000" d="M307,-229.5C307,-229.5 245,-229.5 245,-229.5 239,-229.5 233,-223.5 233,-217.5 233,-217.5 233,-205.5 233,-205.5 233,-199.5 239,-193.5 245,-193.5 245,-193.5 307,-193.5 307,-193.5 313,-193.5 319,-199.5 319,-205.5 319,-205.5 319,-217.5 319,-217.5 319,-223.5 313,-229.5 307,-229.5"/>
<text text-anchor="middle" x="276" y="-207.8" font-family="Times,serif" font-size="14.00" fill="#000000">vamerges</text>
</g>
<!-- rendercube&#45;&gt;vamerges -->
<g id="edge31" class="edge">
<title>rendercube&#45;&gt;vamerges</title>
<path fill="none" stroke="#000000" d="M245.1607,-358.1142C246.3995,-337.0764 248.9216,-307.7906 254,-282.5 257.6838,-264.1546 264.2525,-243.8131 269.2562,-229.6223"/>
<polygon fill="#000000" stroke="#000000" points="241.6552,-358.1283 244.6232,-368.2989 248.6455,-358.4973 241.6552,-358.1283"/>
</g>
<!-- genmergedfaces -->
<g id="node33" class="node">
<title>genmergedfaces</title>
<polygon fill="none" stroke="#000000" points="224.5,-324 89.5,-324 89.5,-288 224.5,-288 224.5,-324"/>
<text text-anchor="middle" x="157" y="-302.3" font-family="Times,serif" font-size="14.00" fill="#000000">genmergedfaces</text>
</g>
<!-- rendercube&#45;&gt;genmergedfaces -->
<g id="edge24" class="edge">
<title>rendercube&#45;&gt;genmergedfaces</title>
<path fill="none" stroke="#000000" d="M224.2584,-368.2333C212.3562,-357.2204 197.031,-343.0402 184.0161,-330.9977"/>
<polygon fill="#000000" stroke="#000000" points="186.3805,-328.417 176.6635,-324.1944 181.6264,-333.555 186.3805,-328.417"/>
</g>
<!-- addmergedverts -->
<g id="node34" class="node">
<title>addmergedverts</title>
<polygon fill="none" stroke="#000000" points="397,-324 263,-324 263,-288 397,-288 397,-324"/>
<text text-anchor="middle" x="330" y="-302.3" font-family="Times,serif" font-size="14.00" fill="#000000">addmergedverts</text>
</g>
<!-- rendercube&#45;&gt;addmergedverts -->
<g id="edge23" class="edge">
<title>rendercube&#45;&gt;addmergedverts</title>
<path fill="none" stroke="#000000" d="M263.5147,-368.2333C275.1701,-357.3233 290.1463,-343.3049 302.9331,-331.3359"/>
<polygon fill="#000000" stroke="#000000" points="305.6536,-333.5834 310.5625,-324.1944 300.87,-328.473 305.6536,-333.5834"/>
</g>
<!-- vbo -->
<g id="node32" class="node">
<title>vbo</title>
<path fill="none" stroke="#000000" d="M137,-52C137,-52 33,-52 33,-52 27,-52 21,-46 21,-40 21,-40 21,-28 21,-28 21,-22 27,-16 33,-16 33,-16 137,-16 137,-16 143,-16 149,-22 149,-28 149,-28 149,-40 149,-40 149,-46 143,-52 137,-52"/>
<text text-anchor="middle" x="85" y="-30.3" font-family="Times,serif" font-size="14.00" fill="#000000">vbodata/vbovas</text>
</g>
<!-- genmergedfaces&#45;&gt;vamerges -->
<g id="edge29" class="edge">
<title>genmergedfaces&#45;&gt;vamerges</title>
<path fill="none" stroke="#000000" d="M179.9444,-287.7794C198.4649,-273.072 224.7004,-252.238 245.0742,-236.0587"/>
<polygon fill="#000000" stroke="#000000" points="247.4715,-238.6244 253.126,-229.6646 243.1183,-233.1426 247.4715,-238.6244"/>
</g>
<!-- addmergedverts&#45;&gt;addcubeverts -->
<g id="edge32" class="edge">
<title>addmergedverts&#45;&gt;addcubeverts</title>
<path fill="none" stroke="#000000" d="M342.3398,-287.7794C351.902,-273.6603 365.2881,-253.8949 376.0381,-238.0219"/>
<polygon fill="#000000" stroke="#000000" points="378.9884,-239.9071 381.698,-229.6646 373.1925,-235.9818 378.9884,-239.9071"/>
</g>
<!-- addmergedverts&#45;&gt;vamerges -->
<g id="edge30" class="edge">
<title>addmergedverts&#45;&gt;vamerges</title>
<path fill="none" stroke="#000000" d="M314.556,-278.973C305.5237,-263.1664 294.3647,-243.6382 286.3798,-229.6646"/>
<polygon fill="#000000" stroke="#000000" points="311.588,-280.8335 319.5883,-287.7794 317.6657,-277.3605 311.588,-280.8335"/>
</g>
<!-- genvbo&#45;&gt;vbo -->
<g id="edge16" class="edge">
<title>genvbo&#45;&gt;vbo</title>
<path fill="none" stroke="#000000" d="M67.7204,-78.639C69.9235,-72.9477 72.1937,-67.083 74.335,-61.5512"/>
<polygon fill="#000000" stroke="#000000" points="64.347,-77.6583 64.001,-88.2474 70.875,-80.1853 64.347,-77.6583"/>
<polygon fill="#000000" stroke="#000000" points="77.6617,-62.6525 78.0077,-52.0633 71.1337,-60.1255 77.6617,-62.6525"/>
</g>
<!-- addvbo&#45;&gt;va -->
<g id="edge43" class="edge">
<title>addvbo&#45;&gt;va</title>
<path fill="none" stroke="#000000" d="M163.3854,-84.5526C170.2773,-73.8702 178.0228,-61.8647 184.2358,-52.2346"/>
<polygon fill="#000000" stroke="#000000" points="160.3296,-82.8331 157.8493,-93.1336 166.2117,-86.6281 160.3296,-82.8331"/>
</g>
<!-- addvbo&#45;&gt;vbo -->
<g id="edge17" class="edge">
<title>addvbo&#45;&gt;vbo</title>
<path fill="none" stroke="#000000" d="M131.5439,-93.1336C123.7951,-83.2889 114.115,-70.9904 105.5926,-60.1628"/>
<polygon fill="#000000" stroke="#000000" points="108.2876,-57.9278 99.3524,-52.2346 102.7871,-62.2572 108.2876,-57.9278"/>
</g>
<!-- gencubeedges_p&#45;&gt;gencubeedges_p -->
<g id="edge25" class="edge">
<title>gencubeedges_p&#45;&gt;gencubeedges_p</title>
<path fill="none" stroke="#000000" d="M700.5725,-398.9514C711.3009,-396.9376 718.5,-392.7871 718.5,-386.5 718.5,-382.3741 715.3996,-379.1683 710.236,-376.8828"/>
<polygon fill="#000000" stroke="#000000" points="711.1534,-373.5045 700.5725,-374.0486 709.1833,-380.2215 711.1534,-373.5045"/>
</g>
<!-- gencubeedges_r -->
<g id="node38" class="node">
<title>gencubeedges_r</title>
<polygon fill="none" stroke="#000000" points="703,-324 547,-324 547,-288 703,-288 703,-324"/>
<text text-anchor="middle" x="625" y="-302.3" font-family="Times,serif" font-size="14.00" fill="#000000">gencubeedges(&amp;...)</text>
</g>
<!-- gencubeedges_p&#45;&gt;gencubeedges_r -->
<g id="edge26" class="edge">
<title>gencubeedges_p&#45;&gt;gencubeedges_r</title>
<path fill="none" stroke="#000000" d="M625,-368.2333C625,-358.2496 625,-345.663 625,-334.4258"/>
<polygon fill="#000000" stroke="#000000" points="628.5001,-334.1944 625,-324.1944 621.5001,-334.1944 628.5001,-334.1944"/>
</g>
<!-- cubeedges_edgegroups -->
<g id="node40" class="node">
<title>cubeedges_edgegroups</title>
<path fill="none" stroke="#000000" d="M771,-229.5C771,-229.5 613,-229.5 613,-229.5 607,-229.5 601,-223.5 601,-217.5 601,-217.5 601,-205.5 601,-205.5 601,-199.5 607,-193.5 613,-193.5 613,-193.5 771,-193.5 771,-193.5 777,-193.5 783,-199.5 783,-205.5 783,-205.5 783,-217.5 783,-217.5 783,-223.5 777,-229.5 771,-229.5"/>
<text text-anchor="middle" x="692" y="-207.8" font-family="Times,serif" font-size="14.00" fill="#000000">cubeedges/edgegroups</text>
</g>
<!-- gencubeedges_r&#45;&gt;cubeedges_edgegroups -->
<g id="edge27" class="edge">
<title>gencubeedges_r&#45;&gt;cubeedges_edgegroups</title>
<path fill="none" stroke="#000000" d="M637.9183,-287.7794C647.9287,-273.6603 661.9423,-253.8949 673.1961,-238.0219"/>
<polygon fill="#000000" stroke="#000000" points="676.1928,-239.8467 679.1214,-229.6646 670.4824,-235.798 676.1928,-239.8467"/>
</g>
<!-- findtjoints&#45;&gt;tjoints -->
<g id="edge54" class="edge">
<title>findtjoints&#45;&gt;tjoints</title>
<path fill="none" stroke="#000000" d="M720.9211,-285.1195C717.9162,-284.195 714.9295,-283.315 712,-282.5 634.6602,-260.9824 605.7167,-284.4947 535,-246.5 530.2948,-243.972 525.8112,-240.6083 521.7189,-236.9638"/>
<polygon fill="#000000" stroke="#000000" points="523.9641,-234.2632 514.3762,-229.755 519.06,-239.2582 523.9641,-234.2632"/>
</g>
<!-- findtjoints&#45;&gt;cubeedges_edgegroups -->
<g id="edge20" class="edge">
<title>findtjoints&#45;&gt;cubeedges_edgegroups</title>
<path fill="none" stroke="#000000" d="M749.8181,-275.0327C736.113,-259.973 720.1197,-242.399 708.4323,-229.5564"/>
<polygon fill="#000000" stroke="#000000" points="747.4224,-277.6003 756.7416,-282.6404 752.5995,-272.8888 747.4224,-277.6003"/>
</g>
<!-- visiblecubes -->
<g id="node42" class="node">
<title>visiblecubes</title>
<polygon fill="none" stroke="#000000" points="1198.5,-129.5 1093.5,-129.5 1093.5,-93.5 1198.5,-93.5 1198.5,-129.5"/>
<text text-anchor="middle" x="1146" y="-107.8" font-family="Times,serif" font-size="14.00" fill="#000000">visiblecubes</text>
</g>
<!-- visiblecubes&#45;&gt;valist -->
<g id="edge52" class="edge">
<title>visiblecubes&#45;&gt;valist</title>
<path fill="none" stroke="#000000" d="M1095.0134,-89.3008C1062.8918,-75.3153 1022.6353,-57.7879 996.1586,-46.2601"/>
<polygon fill="#000000" stroke="#000000" points="1093.701,-92.5467 1104.2669,-93.3297 1096.4955,-86.1286 1093.701,-92.5467"/>
</g>
<!-- visibleva -->
<g id="node45" class="node">
<title>visibleva</title>
<path fill="none" stroke="#000000" d="M1186,-52C1186,-52 1130,-52 1130,-52 1124,-52 1118,-46 1118,-40 1118,-40 1118,-28 1118,-28 1118,-22 1124,-16 1130,-16 1130,-16 1186,-16 1186,-16 1192,-16 1198,-22 1198,-28 1198,-28 1198,-40 1198,-40 1198,-46 1192,-52 1186,-52"/>
<text text-anchor="middle" x="1158" y="-30.3" font-family="Times,serif" font-size="14.00" fill="#000000">visibleva</text>
</g>
<!-- visiblecubes&#45;&gt;visibleva -->
<g id="edge53" class="edge">
<title>visiblecubes&#45;&gt;visibleva</title>
<path fill="none" stroke="#000000" d="M1148.8438,-93.1336C1150.2636,-83.9645 1152.0129,-72.6668 1153.6008,-62.4115"/>
<polygon fill="#000000" stroke="#000000" points="1157.1051,-62.6524 1155.1766,-52.2346 1150.1876,-61.5812 1157.1051,-62.6524"/>
</g>
<!-- renderva -->
<g id="node44" class="node">
<title>renderva</title>
<polygon fill="none" stroke="#000000" points="1309.5,-52 1228.5,-52 1228.5,-16 1309.5,-16 1309.5,-52"/>
<text text-anchor="middle" x="1269" y="-30.3" font-family="Times,serif" font-size="14.00" fill="#000000">renderva</text>
</g>
<!-- rendergeom&#45;&gt;renderva -->
<g id="edge49" class="edge">
<title>rendergeom&#45;&gt;renderva</title>
<path fill="none" stroke="#000000" d="M1269,-93.1336C1269,-83.9645 1269,-72.6668 1269,-62.4115"/>
<polygon fill="#000000" stroke="#000000" points="1272.5001,-62.2345 1269,-52.2346 1265.5001,-62.2346 1272.5001,-62.2345"/>
</g>
<!-- rendergeom&#45;&gt;visibleva -->
<g id="edge50" class="edge">
<title>rendergeom&#45;&gt;visibleva</title>
<path fill="none" stroke="#000000" d="M1234.7029,-87.5538C1218.3053,-76.105 1199.0014,-62.6271 1183.8615,-52.0565"/>
<polygon fill="#000000" stroke="#000000" points="1232.7725,-90.4747 1242.9754,-93.3297 1236.7798,-84.7352 1232.7725,-90.4747"/>
</g>
</g>
</svg>
